HIERARCHY
ROOT HipCenter
{
    OFFSET 0.0 0.0 -0.0
    CHANNELS 6 Xposition Yposition Zposition Zrotation Xrotation Yrotation
    JOINT Spine
    {
        OFFSET 0.0 0.12093640118837357 0.0
        CHANNELS 3 Zrotation Xrotation Yrotation
        JOINT ShoulderCenter
        {
            OFFSET 0.0 0.33488109707832336 0.0
            CHANNELS 3 Zrotation Xrotation Yrotation
            JOINT LeftShoulder
            {
                OFFSET 0.19041869044303894 0.0 0.0
                CHANNELS 3 Zrotation Xrotation Yrotation
                JOINT LeftElbow
                {
                    OFFSET 0.2975490093231201 0.0 0.0
                    CHANNELS 3 Zrotation Xrotation Yrotation
                    JOINT LeftWrist
                    {
                        OFFSET 0.2959679365158081 0.0 0.0
                        CHANNELS 3 Zrotation Xrotation Yrotation
                        JOINT LeftHand
                        {
                            OFFSET 0.04410998895764351 0.0 0.0
                            CHANNELS 3 Zrotation Xrotation Yrotation
                            End Site
                            {
                                OFFSET 0.017643995583057404 0.0 0.0
                            }
                        }
                    }
                }
            }
            JOINT RightShoulder
            {
                OFFSET -0.19041869044303894 0.0 0.0
                CHANNELS 3 Zrotation Xrotation Yrotation
                JOINT RightElbow
                {
                    OFFSET -0.2975490093231201 0.0 0.0
                    CHANNELS 3 Zrotation Xrotation Yrotation
                    JOINT RightWrist
                    {
                        OFFSET -0.2959679365158081 0.0 0.0
                        CHANNELS 3 Zrotation Xrotation Yrotation
                        JOINT RightHand
                        {
                            OFFSET -0.04410998895764351 0.0 0.0
                            CHANNELS 3 Zrotation Xrotation Yrotation
                            End Site
                            {
                                OFFSET -0.017643995583057404 0.0 0.0
                            }
                        }
                    }
                }
            }
            End Site
            {
                OFFSET 0.0 0.13395243883132935 0.0
            }
        }
    }
    JOINT LeftHip
    {
        OFFSET 0.13975726068019867 0.0 0.0
        CHANNELS 3 Zrotation Xrotation Yrotation
        JOINT LeftKnee
        {
            OFFSET 0.0 -0.4064551293849945 0.0
            CHANNELS 3 Zrotation Xrotation Yrotation
            JOINT LeftAnkle
            {
                OFFSET 0.0 -0.44777655601501465 0.0
                CHANNELS 3 Zrotation Xrotation Yrotation
                JOINT LeftFoot
                {
                    OFFSET 0.0 -0.10070839524269104 0.0
                    CHANNELS 3 Zrotation Xrotation Yrotation
                    End Site
                    {
                        OFFSET 0.0 0.0 0.040283359587192535
                    }
                }
            }
        }
    }
    JOINT RightHip
    {
        OFFSET -0.13975726068019867 0.0 0.0
        CHANNELS 3 Zrotation Xrotation Yrotation
        JOINT RightKnee
        {
            OFFSET 0.0 -0.4064551293849945 0.0
            CHANNELS 3 Zrotation Xrotation Yrotation
            JOINT RightAnkle
            {
                OFFSET 0.0 -0.44777655601501465 0.0
                CHANNELS 3 Zrotation Xrotation Yrotation
                JOINT RightFoot
                {
                    OFFSET 0.0 -0.10070839524269104 0.0
                    CHANNELS 3 Zrotation Xrotation Yrotation
                    End Site
                    {
                        OFFSET 0.0 0.0 0.040283359587192535
                    }
                }
            }
        }
    }
}
MOTION
Frames: 7
Frame Time: 0.03333333333333333
0.5479999780654907 -0.013000000268220901 1.649999976158142 1.925158745336898 8.596605611231777 -176.6891830310813 0.5998543913209754 1.0160136172332332 -0.030037451652929613 -1.9735684648245485e-08 3.860983374939485e-08 -0.5015755937628402 96.21398811934438 -26.20166955858151 174.94657086179132 -6.161203720451979e-06 5.594187687960371e-07 19.241433480696276 8.99436994881684e-06 26.64744980988611 11.254376673660428 6.3611093629270335e-15 0.0 0.0 -96.62352908003085 0.8843644885921821 -166.0240424047103 -4.9301981860717715e-06 1.2346728440397828e-06 -22.73625642759295 -179.99999946169098 -60.20463361092699 135.422340106512 -1.5902773407317582e-15 0.0 0.0 27.13776846889387 19.725317103257144 -81.97747291451334 3.6334875159002373 -1.617625394714529 2.6008737030371054 109.99037136615031 -28.84817840927682 174.19178458922968 6.3611093629270335e-15 -1.7655625192200634e-31 -3.1805546814635168e-15 -17.013226947658797 25.149935654201066 65.90389411462881 -3.2372174157302926 -4.0611172109310525 -4.715312811611874 -119.34763137124429 -19.22668362137622 -176.17761726080744 -3.1805546814635176e-15 -6.3611093629270335e-15 -1.2722218725854067e-14
0.5479999780654907 -0.014000000432133675 1.649999976158142 1.4320777432988396 7.592314481394373 -176.56779501210352 -0.47491242885538393 -0.1174820193793251 0.003225009767727743 -1.1689322454111402e-07 5.016549788455696e-07 0.4157003915428563 97.44387386955746 -28.633657618918644 175.53900771410218 3.854218387636945e-06 -2.420221673792557e-07 20.9507738995498 -5.2962741198013436e-08 35.695148657203504 11.765669335730301 -6.3611093629270335e-15 3.531125038440127e-31 -6.3611093629270335e-15 -94.6258051812866 -2.639152000058888 -164.422532242365 -1.0113486751375592e-06 4.2411051709876793e-07 -24.796558976408484 179.999994820596 -53.93952644557692 136.30185370739235 -3.1805546814635176e-15 8.827812596100317e-32 -3.1805546814635176e-15 26.604435687229028 18.94037917161345 -82.91069799050238 3.6453598607278535 -1.710429254383056 2.6873489725997697 110.720715153148 -26.626521997717337 174.66395548248855 -6.3611093629270335e-15 -7.062250076880254e-31 1.2722218725854067e-14 -17.164532234543213 23.76160807198988 64.29210813544427 -2.6419563451431682 -3.143334579753704 -3.5156784584838343 -118.06648158914963 -19.792168488530947 -175.25291624679215 0.0 6.3611093629270335e-15 0.0
0.546999990940094 -0.017000000923871994 1.6490000486373901 0.9548289656918548 7.593560466348063 -175.72991816746747 -1.1311480878259514 -0.2310527177744588 0.005173839065037824 -9.826256898817164e-08 1.2732916956537034e-06 0.1355624186711353 97.88541028345021 -30.52380114376714 175.42720749623638 -4.094910637252932e-06 3.6859997115811893e-07 23.12156026376013 2.3781875784551884e-07 30.178599842310902 12.549380858963227 6.361109362927032e-15 -1.590277340731758e-15 8.827812596100317e-32 -93.51964850494676 -4.962432354850205 -163.41880069969952 -1.0123842454039718e-06 3.332878901301149e-07 -26.353244127187065 179.9999992481662 -53.49954191984335 135.633551603609 0.0 0.0 0.0 26.27706729174861 18.923473492689702 -83.38660914996086 3.873344400010227 -1.8922814586336874 3.006222183112511 110.68429932084231 -27.13225002377327 174.68705370454995 6.3611093629270335e-15 -6.3611093629270335e-15 -3.1805546814635164e-15 -17.495595388947752 24.461030094489033 64.14526884828561 -2.756684373834279 -3.3061994169474853 -3.6281769443495238 -119.14732391458892 -20.735747838863368 -175.2361695728488 -3.1805546814635168e-15 6.3611093629270335e-15 6.3611093629270335e-15
0.5460000038146973 -0.020999999716877937 1.6510000228881836 0.9548289311841337 7.124030595916348 -177.31920423423853 -1.1388185296226587 -0.5616348392952528 0.014544582559483864 2.598455988955444e-07 7.23117124983587e-07 2.0134557082933893 98.35733504287445 -32.06133260494991 175.86708217161686 -2.0334950370352516e-06 4.793829572737274e-07 25.121496412479136 -5.351065556943809e-06 28.005510318250284 12.380300916960287 -3.531125038440127e-31 6.3611093629270335e-15 6.3611093629270335e-15 -93.51685545630137 -5.482873717425329 -163.5094296457504 -1.1220131850476902e-06 1.3904870839964467e-06 -26.564225228694365 179.99999853451308 -52.31966563793148 135.37427571735736 6.3611093629270335e-15 1.7655625192200634e-31 3.1805546814635168e-15 25.531657261946638 19.816966711839942 -82.73979151076853 4.786256909569694 -2.3848278811594104 3.7460817638231814 114.13130809958763 -27.248406030719863 176.13970453294 0.0 0.0 0.0 -18.186572632314707 23.29221198589606 64.42899774780625 -2.578850004519033 -3.136828436467749 -3.5479862389487358 -117.86370252222609 -21.800631003166416 -174.84131103301644 3.1805546814635164e-15 -6.361109362927033e-15 1.7655625192200634e-31
0.546999990940094 -0.024000000208616257 1.6519999504089355 1.9091562632327947 7.121150941580667 -177.8082143936589 -0.011314862179905651 -0.5936143381766621 0.01801691098956049 9.202497288131692e-08 -1.0449908917419216e-07 2.238672870330638 97.98282871021439 -31.761731226127957 175.83874202640098 -2.287374174699817e-06 -3.468252310005802e-06 26.629545566128623 3.60604997943348e-06 23.82053182566206 13.590178906400048 6.361109362927032e-15 7.951386703658794e-16 6.361109362927032e-15 -93.59235205065059 -6.251335085169768 -164.10642636271004 1.1879814372798728e-08 -1.4804090511661666e-07 -25.837935108978186 -179.99999718046078 -49.174238310416804 135.39919602166995 1.5902773407317584e-15 -6.3611093629270335e-15 8.827812596100317e-32 26.69555805452205 20.05157428455147 -82.04002979945028 4.962554433664262 -2.835582852480116 4.438589938741278 114.20393269377735 -28.287693953816554 175.98944686842293 3.531125038440127e-31 6.3611093629270335e-15 -6.3611093629270335e-15 -17.677801301409872 23.384825169807513 65.75560232375726 -2.6811104583530914 -3.552750616110212 -4.0436565166576965 -119.0548266497432 -22.14780740357744 -175.2979243553579 3.531125038440127e-31 -6.3611093629270335e-15 6.3611093629270335e-15
0.5460000038146973 -0.023000000044703484 1.652999997138977 1.4321061225113971 7.592313037100079 -178.6092698098876 -0.965123417884864 0.4111361399148884 -0.004079321065304013 -4.9466784052021484e-09 3.3431998781232926e-07 2.7992149630893923 98.61989174056727 -31.914757634097032 176.60496198188207 -6.730934386759809e-07 -3.859655406010768e-06 27.057502382999644 2.221486149747711e-06 5.940838366549891 14.333470152091671 -6.361109362927033e-15 3.531125038440127e-31 -6.361109362927033e-15 -93.43744351601758 -6.986955827277938 -165.60869959992283 -3.872750860961636e-06 2.5952863627161454e-06 -23.944708955433 179.99999581464985 -53.222416285854266 135.0002662875011 1.5902773407317584e-15 -8.827812596100317e-32 -6.3611093629270335e-15 26.041574264099243 21.004706108171344 -82.07383935632565 5.158653642157273 -2.6983824124296913 4.089394200015152 114.84652990459035 -29.737037649210475 175.70280525570647 -3.1805546814635168e-15 -3.531125038440127e-31 1.2722218725854067e-14 -18.613610530576903 23.75056239866747 66.71657921116223 -2.9205339194279483 -3.6805932888054413 -4.230169911184246 -118.36768223850706 -22.74722451642206 -175.01057665798947 3.1805546814635168e-15 -6.3611093629270335e-15 1.7655625192200634e-31
0.546999990940094 -0.019999999552965164 1.656000018119812 1.9091561734434397 7.59049127010081 -178.62123378151813 -0.8348900619647127 0.7273640502013303 -0.007790329734597401 -1.0172645314956314e-07 9.922289252573243e-08 2.787409025662561 98.64563717031082 -30.900889290541738 177.43614246467465 5.602892469996356e-07 -2.386333527582104e-06 26.364806677947143 1.3765230706510659e-06 4.9133638673897835 14.944811384002689 6.3611093629270335e-15 5.565970692561154e-15 6.3611093629270335e-15 -93.32880552157214 -6.020882427426521 -166.96523588963976 1.5509760521849475e-06 1.7827388535271187e-06 -22.704951004180714 -179.99999464949485 -55.07745493545952 134.40883633146214 1.5902773407317582e-15 -6.3611093629270335e-15 -3.1805546814635168e-15 26.679523835374752 20.218630210100216 -82.35646959596745 4.268299568194749 -2.0662674941575063 3.0759437680383983 112.50476914918534 -28.17043377296606 174.55709657111177 0.0 0.0 0.0 -18.00080146973737 23.137435878662295 66.24713807740886 -2.550264165227421 -3.298729678123116 -3.738656936230184 -117.21095659429254 -21.872703277917093 -174.58972163206934 3.1805546814635168e-15 -6.3611093629270335e-15 1.7655625192200634e-31
